<svg width="41" height="60" viewBox="0 0 41 60" fill="none" xmlns="http://www.w3.org/2000/svg">
<rect opacity="0.01" width="40" height="60" fill="white"/>
<path d="M20.0217 58.7286C22.3249 58.7286 24.192 56.8615 24.192 54.5583C24.192 52.2552 22.3249 50.3882 20.0217 50.3882C17.7186 50.3882 15.8516 52.2552 15.8516 54.5583C15.8516 56.8615 17.7186 58.7286 20.0217 58.7286Z" fill="#3E4958"/>
<path fill-rule="evenodd" clip-rule="evenodd" d="M20.0214 51.4137C18.2847 51.4137 16.8768 52.8215 16.8768 54.5582C16.8768 56.2949 18.2847 57.7027 20.0214 57.7027C21.758 57.7027 23.1659 56.2949 23.1659 54.5582C23.1659 52.8215 21.758 51.4137 20.0214 51.4137ZM14.8256 54.5582C14.8256 51.6886 17.1518 49.3623 20.0214 49.3623C22.891 49.3623 25.2172 51.6886 25.2172 54.5582C25.2172 57.4278 22.891 59.754 20.0214 59.754C17.1518 59.754 14.8256 57.4278 14.8256 54.5582Z" fill="#FDFDFD"/>
<path fill-rule="evenodd" clip-rule="evenodd" d="M19.0104 39.9517H20.8703V53.8218H19.0104V39.9517Z" fill="#3E4958"/>
<path fill-rule="evenodd" clip-rule="evenodd" d="M20.3999 0C9.35419 0 0.399902 8.95431 0.399902 20C0.399902 31.0458 9.35419 40 20.3999 40C31.4455 40 40.3999 31.0458 40.3999 20C40.3999 8.95431 31.4455 0 20.3999 0Z" fill="#C6902E"/>
<path fill-rule="evenodd" clip-rule="evenodd" d="M20.2913 27C22.666 27 25.5833 20.0848 25.5833 17.2083C25.5833 14.3319 23.1678 12 20.2913 12C17.4149 12 15 14.3319 15 17.2083C15 20.0848 17.9167 27 20.2913 27ZM20.4141 19.916C21.7948 19.916 22.9141 18.7967 22.9141 17.416C22.9141 16.0353 21.7948 14.916 20.4141 14.916C19.0334 14.916 17.9141 16.0353 17.9141 17.416C17.9141 18.7967 19.0334 19.916 20.4141 19.916Z" fill="white"/>
</svg>
